<svg id="Logoer" xmlns="http://www.w3.org/2000/svg" viewBox="0 0 1920 1078.907">
  <defs>
    <style>
      .cls-1 {
        fill: #00c785;
      }

      .cls-2 {
        fill: #fff;
      }
    </style>
  </defs>
  <title>SN_hvit_gronn</title>
  <g>
    <path class="cls-1" d="M431.30368,215.7787c-119.1709,0-215.77881,96.608-215.77881,215.77893,0,119.17169,96.60791,215.77893,215.77881,215.77893Z"/>
    <polygon class="cls-1" points="215.525 863.115 431.304 647.337 215.525 647.337 215.525 863.115"/>
    <path class="cls-2" d="M431.30368,431.55763V863.11549c119.17139,0,215.77881-96.60724,215.77881-215.77893C647.08249,528.1656,550.47507,431.55763,431.30368,431.55763Z"/>
    <polygon class="cls-2" points="647.082 215.779 431.304 215.779 647.082 431.557 647.082 215.779"/>
    <path class="cls-2" d="M811.49606,488.31513c-21.09521,0-36.67187-11.123-40.15185-34.17486h-21.977c2.55712,32.35107,24.30029,52.14892,61.15869,52.14892,38.72021,0,59.16455-21.56,59.16455-51.11853,0-24.47747-10.59522-41.25042-54.38867-54.5401-28.50733-8.60852-37.75586-15.18622-37.75586-31.858,0-16.30829,10.36425-26.48773,31.17822-26.48773,22.00293,0,32.39258,11.51489,35.11377,29.666H865.7236c-1.89014-25.08752-18.16553-47.6242-56.4082-47.6242-33.04346,0-54.335,18.25378-54.335,46.4768,0,25.47473,14.227,37.83045,51.42382,49.15253,31.16895,9.68158,40.44581,18.01672,40.44581,37.685C846.85007,477.42292,832.80661,488.31513,811.49606,488.31513Z"/>
    <path class="cls-2" d="M951.24313,503.68464V487.66718a60.02488,60.02488,0,0,1-10.12109.84711c-11.13867,0-13.86328-4.60058-13.86328-15.50867V391.3614h26.31689V373.82832H927.25876V335.9015H906.05563v37.92682H885.125V391.3614h20.93066V477.031c0,21.65168,9.15381,28.89319,28.11865,28.89319C938.73239,505.92414,946.19821,505.50056,951.24313,503.68464Z"/>
    <path class="cls-2" d="M1073.12448,475.35413V411.94788c0-29.71966-18.71191-40.69409-45.98389-40.69409-34.72168,0-47.32715,17.80811-49.28027,39.64789H998.7026c2.19385-14.39917,8.77149-23.11517,27.75879-23.11517,22.12891,0,25.64063,12.77923,25.64063,25.157v12.66229h-19.98584c-46.72363,0-59.40186,21.79078-59.40186,41.43219,0,18.09259,9.76709,39.58307,41.63135,39.58307,21.27539,0,34.45947-9.36554,39.45361-22.48144a117.01911,117.01911,0,0,0,1.89307,20.16613h19.39844A222.25736,222.25736,0,0,1,1073.12448,475.35413Zm-20.40283-31.62884c0,28.02551-8.43653,45.30261-34.06787,45.30261-16.42969,0-24.14209-10.52716-24.14209-23.24951,0-11.88947,5.94531-24.71765,37.54394-24.71765h20.666Z"/>
    <path class="cls-2" d="M1190.48923,423.43433v80.87146h21.46191V420.12812c0-35.24164-17.36865-48.87433-41.5332-48.87433-21.3545,0-33.05567,11.33319-38.45752,23.02979.16406-5.435-.43946-17.97406-.79053-20.45526h-20.93066c.25586,5.58514.51513,13.6532.51513,40.85211v89.62536h21.29737V434.56367c0-27.37122,9.29-44.63886,32.582-44.63886C1184.07614,389.92481,1190.48923,404.46308,1190.48923,423.43433Z"/>
    <path class="cls-2" d="M1328.43747,485.061c0,7.59076.43945,15.8089.78711,19.24475h20.93408c-.42334-8.05224-.51514-21.44781-.51514-34.00262V316.90809h-21.29785v69.98865c-3.49267-7.2146-13.38916-15.643-34.44043-15.643-35.36035,0-54.90332,30.40564-54.90332,68.07007,0,38.85925,16.75537,67.38886,50.5542,67.38886C1310.98971,506.71272,1321.59762,500.18879,1328.43747,485.061Zm-67.3667-46.69177c0-31.12311,13.87256-48.70209,35.56543-48.70209,22.06592,0,32.51562,10.58246,32.51562,46.81507,0,30.60949-5.78125,51.90875-33.87451,51.90875C1274.7568,488.391,1261.07077,470.09455,1261.07077,438.36927Z"/>
    <path class="cls-2" d="M1479.16159,411.94788c0-29.71966-18.71192-40.69409-45.98389-40.69409-34.72168,0-47.32715,17.80811-49.28027,39.64789h20.84228c2.19385-14.39917,8.77149-23.11517,27.7583-23.11517,22.1294,0,25.64063,12.77923,25.64063,25.157v12.66229H1438.1528c-46.72314,0-59.40137,21.79078-59.40137,41.43219,0,18.09259,9.76709,39.58307,41.63135,39.58307,21.27539,0,34.45947-9.36554,39.45361-22.48144a116.96955,116.96955,0,0,0,1.89307,20.16613h19.398a222.34892,222.34892,0,0,1-1.96582-28.95166Zm-20.40332,31.77741c0,28.02551-8.436,45.30261-34.06738,45.30261-16.42969,0-24.14209-10.52716-24.14209-23.24951,0-11.88947,5.94531-24.71765,37.54394-24.71765h20.66553Z"/>
    <path class="cls-2" d="M1539.54,400.294c0-11.98114-.0918-20.30676-.53125-26.46563H1518.0776c.34766,6.45282.51514,23.48968.51514,44.288v86.18951h21.29785V440.122c0-28.14246,12.51709-45.41,41.85889-46.46576V371.43714C1560.041,371.769,1545.6528,384.1089,1539.54,400.294Z"/>
    <path class="cls-2" d="M1703.96286,470.30317V316.90809H1682.6655v69.98865c-3.4961-7.2146-13.39258-15.643-34.44385-15.643-35.35694,0-54.90332,30.40564-54.90332,68.07007,0,38.85925,16.7583,67.38886,50.55713,67.38886,21.43066,0,32.0415-6.52393,38.88134-21.65168,0,7.59076.43946,15.8089.78711,19.24475h20.93116C1704.05173,496.25355,1703.96286,482.858,1703.96286,470.30317ZM1649.59372,488.391c-20.52051,0-34.20655-18.29645-34.20655-50.02173,0-31.12311,13.87256-48.70209,35.56885-48.70209,22.06543,0,32.51221,10.58246,32.51221,46.81507C1683.46823,467.09174,1677.6904,488.391,1649.59372,488.391Z"/>
    <path class="cls-2" d="M872.68356,647.26222c0,28.81884.25928,57.4718,1.89356,81.12268h-.34766c-3.24023-7.82776-12.80762-24.83149-83.68945-150.94068H761.32126V755.10658H782.0405V684.549c0-31.89124.24023-61.68048-1.04639-84.63916h.25635c3.812,7.42956,9.41943,18.61255,85.23193,155.19678h27.085V577.44422H872.68356Z"/>
    <path class="cls-2" d="M982.292,622.05457c-39.44434,0-58.22559,32.01923-58.22559,66.28577,0,35.85645,16.04395,69.00726,56.59131,69.00726,41.73535,0,58.28565-31.83117,58.28565-69.61413C1038.94333,650.14015,1019.23532,622.05457,982.292,622.05457Zm-.34766,117.50074c-23.64648,0-35.90088-21.372-35.90088-51.41407,0-28.40008,12.08692-48.29437,35.20215-48.29437,23.82959,0,35.64453,19.66358,35.64453,47.97827C1016.8901,718.68116,1006.37106,739.55531,981.9443,739.55531Z"/>
    <path class="cls-2" d="M1088.47018,651.09474c0-11.98114-.09131-20.30677-.53076-26.46564h-20.93115c.34765,6.45282.51514,23.48968.51514,44.288v86.18952h21.29785V690.92274c0-28.14246,12.5166-45.41,41.85888-46.46576V622.23792C1108.97165,622.56977,1094.58346,634.90968,1088.47018,651.09474Z"/>
    <path class="cls-2" d="M1232.14255,640.60389c-3.41993-10.08935-14.13184-18.54932-34.731-18.54932-30.01514,0-53.51318,24.97687-53.51318,67.26563,0,40.43017,19.86279,66.05505,50.53222,66.05505,20.16651,0,31.62744-6.86853,38.31592-21.45416v10.71045c0,28.476-6.36621,46.79456-34.355,46.79456-16.6294,0-28.33691-7.066-31.22607-21.5727h-21.11768c1.87793,18.57465,13.415,39.01569,51.52148,39.01569,39.62745,0,55.94385-22.99817,55.94385-63.66858V662.45789c0-17.786.25928-31.6383.51514-37.82879H1233.186C1232.83786,627.60975,1232.14255,635.03925,1232.14255,640.60389Zm-32.55664,96.192c-20.69678,0-33.52686-17.4762-33.52686-47.749,0-30.325,13.00049-48.4129,34.63037-48.4129,25.36231,0,32.58789,15.21,32.58789,47.82336C1233.27731,721.26038,1224.519,736.79585,1199.58591,736.79585Z"/>
    <path class="cls-2" d="M1337.97067,622.05457c-40.168,0-55.89648,35.376-55.89648,67.40632,0,36.00024,13.873,68.127,54.68554,68.127,34.95264,0,47.67188-23.07727,51.96094-39.346h-21.02588c-2.46533,6.82422-8.92285,21.55524-29.90771,21.55524-23.02637,0-34.15576-19.71564-33.9917-45.83362h86.78369c.0918-.82019.18359-9.17273.18359-9.90131C1390.76266,653.96156,1378.86227,622.05457,1337.97067,622.05457ZM1304.311,678.32685c1.17871-15.55285,7.30762-38.93512,33.14405-38.93512,22.63476,0,31.52636,16.7461,32.209,38.93512Z"/>
  </g>
</svg>
